<?xml version="1.0" standalone="no"?>
<!DOCTYPE svg PUBLIC "-//W3C//DTD SVG 20010904//EN"
 "http://www.w3.org/TR/2001/REC-SVG-20010904/DTD/svg10.dtd">
<svg version="1.0" xmlns="http://www.w3.org/2000/svg"
 width="512.000000pt" height="512.000000pt" viewBox="0 0 512.000000 512.000000"
 preserveAspectRatio="xMidYMid meet">
<metadata>
Created by potrace 1.14, written by Peter Selinger 2001-2017
</metadata>
<g transform="translate(0.000000,512.000000) scale(0.100000,-0.100000)"
fill="#000000" stroke="none">
<path d="M2379 5116 c-2 -2 -35 -6 -74 -10 -38 -3 -97 -10 -130 -16 -33 -6
-76 -13 -95 -16 -142 -22 -443 -119 -580 -185 -38 -18 -62 -56 -68 -105 -8
-75 50 -138 127 -136 15 0 65 16 112 35 91 38 249 93 289 101 14 3 63 14 110
25 47 10 110 22 140 26 30 4 58 9 61 11 10 6 219 18 309 17 76 0 239 -11 279
-18 9 -1 39 -6 66 -10 28 -5 52 -9 55 -10 3 -1 26 -5 52 -9 26 -5 45 -12 42
-17 -3 -5 2 -6 10 -3 8 3 50 -4 93 -16 458 -125 878 -400 1180 -772 113 -140
209 -288 195 -303 -4 -4 -2 -5 4 -2 13 8 47 -60 38 -75 -4 -7 -2 -8 4 -4 16
10 102 -174 157 -339 28 -85 70 -248 79 -305 2 -19 9 -62 15 -95 5 -33 12 -85
16 -115 7 -68 8 -347 0 -415 -12 -109 -16 -141 -20 -155 -3 -8 -7 -31 -10 -50
-2 -19 -9 -56 -14 -82 -141 -680 -603 -1272 -1236 -1583 -198 -98 -440 -180
-556 -190 -14 -1 -30 -4 -35 -7 -5 -3 -29 -9 -54 -12 -25 -3 -56 -8 -70 -11
-117 -24 -501 -24 -620 0 -14 3 -38 8 -55 10 -247 42 -437 102 -641 203 -460
226 -829 592 -1058 1048 -222 445 -297 981 -201 1454 3 14 8 38 10 54 21 110
88 321 145 451 26 60 28 113 5 148 -37 57 -100 75 -164 46 -37 -16 -46 -27
-77 -96 -69 -149 -158 -448 -178 -594 -3 -19 -8 -52 -11 -74 -19 -129 -22
-202 -19 -395 1 -118 5 -231 9 -250 3 -19 13 -78 21 -130 100 -617 438 -1192
929 -1581 288 -228 602 -385 960 -478 44 -12 94 -24 110 -26 17 -3 53 -10 80
-15 246 -46 594 -49 859 -6 62 10 140 26 180 37 23 6 52 13 66 16 14 2 86 24
160 49 139 47 281 110 426 189 46 25 85 45 87 43 2 -2 10 4 19 12 9 8 24 21
34 27 11 7 45 31 77 53 32 22 63 37 69 34 6 -4 8 -2 5 3 -8 12 89 90 105 85 5
-1 7 2 4 7 -3 5 5 16 18 24 40 27 248 239 312 319 34 42 66 74 70 70 5 -4 6
-3 2 2 -9 10 90 152 104 148 5 -1 7 2 4 7 -4 6 12 39 34 76 131 213 254 521
306 760 12 54 25 124 30 155 2 19 6 44 9 55 19 95 27 458 13 605 -31 311 -120
618 -258 890 -67 134 -84 163 -157 273 -245 371 -585 672 -980 871 -72 36
-134 66 -137 66 -4 0 -25 9 -49 19 -102 47 -371 127 -487 145 -19 3 -44 7 -55
10 -11 2 -45 7 -75 11 -30 4 -64 9 -75 12 -25 6 -450 14 -456 9z"/>
<path d="M699 4859 c-176 -25 -336 -146 -402 -304 -122 -293 38 -618 345 -699
70 -19 218 -14 283 9 116 40 221 125 281 228 143 243 61 557 -181 699 -53 31
-75 39 -135 55 -14 4 -46 9 -110 17 -14 1 -50 -1 -81 -5z"/>
<path d="M2468 4095 c-2 -2 -34 -6 -72 -9 -38 -3 -78 -8 -90 -11 -11 -2 -34
-7 -51 -9 -110 -17 -328 -99 -455 -171 -327 -185 -579 -492 -699 -851 -57
-168 -76 -290 -76 -479 0 -178 21 -335 60 -445 8 -22 15 -42 15 -45 4 -31 89
-219 131 -291 159 -272 414 -502 693 -624 41 -18 72 -38 69 -43 -3 -6 -1 -7 5
-3 6 3 57 -7 114 -24 153 -46 325 -69 488 -65 74 2 149 7 165 10 137 26 200
41 265 62 331 110 603 315 803 605 88 127 209 407 209 483 0 75 -68 132 -145
122 -59 -8 -90 -44 -122 -145 -32 -99 -101 -236 -166 -332 -52 -76 -225 -260
-245 -260 -8 0 -14 -4 -14 -9 0 -16 -161 -118 -251 -160 -186 -87 -360 -122
-574 -116 -77 2 -151 6 -165 9 -14 4 -38 9 -55 11 -16 3 -55 12 -85 21 -298
82 -552 266 -725 524 -56 83 -139 251 -149 298 -2 10 -6 24 -9 32 -6 15 -31
110 -42 165 -14 62 -13 349 1 430 45 265 194 539 389 718 237 217 521 334 830
342 77 2 167 -1 200 -6 33 -6 71 -11 85 -13 124 -17 351 -112 480 -204 77 -54
156 -124 152 -134 -1 -5 1 -7 6 -6 4 1 17 -3 30 -11 33 -18 97 -16 127 3 55
36 78 116 48 166 -44 74 -264 236 -426 314 -77 38 -171 74 -237 91 -66 18
-195 45 -240 50 -58 6 -268 14 -272 10z"/>
<path d="M3872 3314 c-212 -56 -334 -274 -270 -484 30 -101 105 -185 208 -234
59 -28 74 -31 160 -31 87 0 101 3 161 32 212 104 283 363 154 559 -88 134
-257 199 -413 158z"/>
<path d="M2451 3059 c-86 -17 -190 -75 -256 -143 -130 -136 -178 -320 -127
-498 51 -178 200 -317 383 -358 120 -27 288 3 383 67 186 126 271 339 221 552
-63 266 -330 434 -604 380z"/>
</g>
</svg>
